<?xml version="1.0" standalone="no"?>
<!DOCTYPE svg PUBLIC "-//W3C//DTD SVG 20010904//EN"
 "http://www.w3.org/TR/2001/REC-SVG-20010904/DTD/svg10.dtd">
<svg version="1.0" xmlns="http://www.w3.org/2000/svg"
 width="500.000000pt" height="500.000000pt" viewBox="0 0 500.000000 500.000000"
 preserveAspectRatio="xMidYMid meet">

<g transform="translate(0.000000,500.000000) scale(0.100000,-0.100000)"
fill="#000000" stroke="none">
<path d="M4260 3226 c0 -2 7 -17 15 -32 34 -66 6 -155 -68 -217 -47 -39 -131
-76 -144 -63 -3 2 0 28 6 56 6 28 11 72 11 98 0 26 5 65 10 87 6 28 6 42 -3
47 -7 4 -194 8 -417 9 -223 0 -444 1 -492 2 -47 1 -89 0 -92 -4 -3 -3 -1 -21
4 -40 9 -33 36 -173 50 -254 6 -40 -15 -105 -40 -120 -5 -3 -10 -13 -10 -21 0
-7 -27 -50 -61 -93 -59 -78 -74 -88 -144 -104 -11 -3 5 -5 35 -6 47 -1 57 2
69 22 8 12 32 43 55 69 22 26 52 68 67 95 30 54 49 66 49 31 0 -12 7 -69 17
-125 l16 -103 41 0 41 -1 -45 -40 c-38 -34 -95 -76 -136 -102 -6 -3 -30 8 -53
25 -23 17 -44 28 -47 25 -7 -7 56 -87 67 -87 5 0 25 9 44 20 84 47 104 62 168
128 l33 33 127 2 128 2 -47 -45 c-26 -25 -70 -59 -97 -77 l-49 -32 -41 30
c-52 38 -60 21 -15 -29 l33 -38 71 41 c39 23 95 65 125 93 31 30 64 52 79 54
14 1 32 2 40 4 8 1 88 2 176 3 l161 1 11 58 c6 31 18 101 27 154 l17 97 64 20
c123 38 188 117 188 226 0 59 -15 105 -34 105 -6 0 -10 -2 -10 -4z m-480 -216
c0 -6 -7 -13 -15 -16 -8 -3 -17 -26 -21 -51 -4 -25 -17 -57 -29 -71 -21 -24
-31 -27 -85 -27 -55 0 -64 3 -85 27 -13 15 -27 48 -30 73 -6 34 -12 45 -25 45
-13 0 -19 -11 -25 -45 -3 -25 -17 -58 -30 -73 -21 -24 -30 -27 -85 -27 -54 0
-64 3 -85 27 -12 14 -25 46 -29 71 -4 25 -13 48 -21 51 -8 3 -15 10 -15 16 0
7 97 10 290 10 193 0 290 -3 290 -10z m-216 -212 c-12 -40 -25 -48 -75 -48
-36 0 -54 5 -69 20 -40 40 -26 50 72 50 78 0 79 0 72 -22z"/>
<path d="M3542 2953 c12 -59 38 -83 88 -83 52 0 77 25 86 83 l6 47 -95 0 -95
0 10 -47z"/>
<path d="M3266 2953 c10 -57 21 -72 59 -79 70 -13 97 6 110 79 l7 37 -91 0
-92 0 7 -37z"/>
<path d="M770 3091 c0 -5 11 -12 25 -15 l25 -6 0 -205 0 -205 -25 -6 c-54 -13
-20 -24 75 -24 101 0 121 7 75 28 l-25 12 0 199 c0 186 1 200 19 206 50 15
101 -40 101 -110 0 -60 -25 -95 -67 -95 -26 0 -31 -15 -7 -24 81 -31 174 35
174 125 0 58 -33 103 -88 119 -45 12 -282 13 -282 1z"/>
<path d="M1340 3084 c-86 -37 -143 -125 -143 -219 0 -134 103 -235 240 -235
69 0 125 24 170 71 112 118 75 312 -72 380 -49 23 -146 24 -195 3z m137 -24
c41 -24 69 -80 82 -159 11 -70 0 -160 -24 -197 -58 -89 -173 -59 -209 55 -39
120 -27 232 29 288 39 39 74 42 122 13z"/>
<path d="M1730 3091 c0 -5 11 -12 24 -15 32 -8 36 -27 36 -211 0 -184 -4 -203
-36 -211 -54 -14 -18 -24 81 -24 63 0 105 4 105 10 0 6 -6 10 -14 10 -8 0 -22
7 -30 16 -13 13 -16 46 -16 203 0 205 4 218 53 206 53 -14 84 -85 66 -150 -10
-37 -34 -55 -70 -55 -19 0 -20 -2 -8 -16 10 -12 25 -15 63 -11 41 4 55 11 82
40 64 70 51 157 -30 197 -36 17 -62 20 -174 20 -73 0 -132 -4 -132 -9z"/>
</g>
</svg>
